<?xml version="1.0" encoding="utf-8"?>
<!-- Generator: Adobe Illustrator 24.0.2, SVG Export Plug-In . SVG Version: 6.00 Build 0)  -->
<svg version="1.1" id="Слой_1" xmlns="http://www.w3.org/2000/svg" xmlns:xlink="http://www.w3.org/1999/xlink" x="0px" y="0px"
	 viewBox="0 0 2085 2085" style="enable-background:new 0 0 2085 2085;" xml:space="preserve">
<style type="text/css">
	.st0{fill:#FFFFFF;}
	.st1{fill:#F15B29;}
	.st2{fill:#110E0E;}
</style>
<path class="st0" d="M380.2,1.8c-125.3,9.3-239,75.1-309.9,179.4c-36.7,53.9-58.8,113.4-67.8,182c-1.7,13.4-1.8,41.3-1.8,679.5
	s0.1,666.1,1.8,679.5c12.5,96.1,51.8,176.6,118.9,243.4c65.7,65.5,149.6,105.5,244.8,116.8c14.9,1.7,42,1.8,675.5,1.8
	s660.6-0.1,675.5-1.8c79.5-9.4,150.2-38.3,210.5-86.1c85.3-67.7,138.9-163.2,153.2-273.1c1.7-13.4,1.8-41.9,1.8-680.5
	s-0.1-667.1-1.8-680.5c-14.3-110-67.9-205.5-153.2-273c-65-51.6-142-81.2-227-87.5C1683.4,0.5,397.4,0.6,380.2,1.8z"/>
<g>
	<path class="st1" d="M661.2,731.9c-34.3,0.3-46.8-0.6-48.6,7.5c-1.7,8.2,0.3,33.8,0.3,33.8s-4.8,7.5,13.7,7.9s82.2-3,114.2,2
		c32,4.9,116.9,18.3,136.7,25.6c19.8,7.3,55.2,14.5,55.2,14.5l14.5-22.4c0,0,44.2-16.4-6.7-23.8c-50.9-7.3-188.4-42.8-188.4-42.8
		l-58.2-6.7L661.2,731.9z"/>
	<path class="st1" d="M450,674.1c-7,6.1-18.3,16.9-18.6,22.1c-0.3,5.2,4.1,31.4,4.1,31.4l18.8,3.2l43.9-12.8l-11.9-24.2l-9.9-34.5
		l-6.7-3L450,674.1z"/>
	<path class="st1" d="M1431.4,634.8c-4.9,7.3-22.7,40.1-22.7,40.1l5.2,50.6l17.4,16.3l122.7,26.5l2.4-52.3l17.1-29.7l2.3-8.1
		l-47.7-49.4l-24.4-14l-34.3-4.1l-22.4,11L1431.4,634.8z"/>
	<path class="st1" d="M664.3,1406.4l-17.9-12.4c0,0-61.9-10.9-74.3-13.7c-12.4-2.8-39.7-10.3-46.7-10c-7,0.3-19.9,4.5-19.9,4.5
		l-10.7,23.7c0,0-5.2,28.4-5.2,34.9s0.2,31.6,0.2,31.6l7.6,20.1l51.7,20.7l-0.9-1.3c72,2.2,91.5,4.8,100.7-19.6
		c9.2-24.4,17.5-56.7,17.5-56.7L664.3,1406.4z"/>
	<path class="st1" d="M884.2,1439.1c0.9,18.8,13.1,38.8,13.1,38.8l69.4,12.6l102.9-20.8l47.1-37.2l11.3-34.9l-9.6-31.4l-14-17
		l-35.3-17.1l-17.8-5.6l-97.4,46.2l-58.9,25.7L884.2,1439.1z"/>
	<path class="st0" d="M857.4,315.5c14-1.4,120.7-12.4,120.7-12.4l55.8,10.8l33.1,10.5l25.6-23.3l14.8-25.9c0,0,0.6-100-62.8-128.5
		c-63.4-28.5-76.8-23.8-92.2-20.6c-15.4,3.2-60.4,24.9-64,31.1c-3.6,6.2-12.2,14.9-12.2,14.9s-14.1,12.3-21,28.8
		c-7,16.5-16.4,42.9-17.7,66.6c-1.3,23.8-1.5,32.4,1.9,39.7c3.4,7.3,8.3,8.3,8.3,8.3H857.4z"/>
	<path class="st1" d="M906.1,307c-37.7,7-59.3,14.8-59.3,14.8l-7,4.9l4.7,20.9l24.1,6.1c0,0,104.2-2.5,132.2,0
		c27.9,2.5,32.9,1.3,32.9,1.3l13.4-30.8l-14.8-14.1L906.1,307z"/>
	<path class="st0" d="M944.1,1535.1c-1.8,18,0,38.4,0,38.4l37.2,32.6l122.1-20.4l76.8-62.5l4.1-35.8l-30.8-44.2l-15.7-11
		L944.1,1535.1z"/>
	<polygon class="st0" points="669.9,1398.4 627.7,1391.7 558.5,1375.4 544.8,1372.7 527,1370.3 510.8,1371.7 506,1371.8 505,1340 
		511.9,1287.5 523.2,1248.3 529.4,1225.2 522.7,1138.5 529.7,1045.7 543.1,987.2 571.9,892.5 582.9,852 587.5,814.8 598,802 
		623.7,784 664.1,782.2 738.2,780.8 794.3,788.3 840.6,797.7 877.5,808.7 896.4,827 944.4,975.8 981.1,1063.1 1045.6,1228.4 
		1069.5,1283.8 1059.1,1322.7 1012.4,1348.4 940.9,1382 901.6,1392.9 882.4,1422.2 875.4,1427.3 856.7,1405.5 820.5,1367.6 
		798.7,1319.2 787.3,1310.9 684.4,1358.9 	"/>
	<polygon class="st1" points="1140.6,1686.9 1169,1722.6 1223.1,1767.1 1277.2,1737 1232.7,1660.3 1206.9,1652.4 	"/>
	<path class="st0" d="M480.1,641.6c0,3.7-3.1,19.4-0.2,27.5s8.9,31.2,8.9,31.2l17,8.1l31.8-18.5l28.1-2.8l31.4-13.7l22.9-31
		l9.8-26.4l5.5-20.3l-8.8-21.2l6.3-26.2l-1.9-11.3l-26.9,12l-47.8,25.3l-38.6,13.3l-15.3,10.7l-10.5,20.1L480.1,641.6z"/>
	<path class="st0" d="M642.2,602.3c-3.2,7.6-12.8,34.9-12.8,34.9L618,668.8l-6.2,28.5v25.6l26.3,4.7h84.6l68.3,14.6l83.2,17.6
		l74.4,15.6l21.4-27.3l27.3-46.6l-8.1-24.4c0,0-94.6-52.8-177.5-70.5c-82.9-17.7-145.1-15.4-145.1-15.4l-25.9,11"/>
	<path class="st0" d="M992.3,517.4c-15.1,29.7-21.5,64.6-21.5,64.6l34.3,39.4l61.6,29.8l47.1-5.8l25.6-49.7c0,0,20.9-7.3,37.2,7.8
		c16.3,15.1,45.1,29,45.1,29l18.5,7.4l19.6,21.6l18.3,17.2l20.8,13.1c0,0,9.6,10.7,15.4,21.8s27,29.7,27,29.7l31.8,11.3l37.7,2.2
		l19.2-8.6c0,0-11.3-17.6-18.1-32.4s-1.5-48-1.5-48s11.2-33.5,36.5-46c25.3-12.5,47.7-11,47.7-11l26.8,6.5l0.9-14.1
		c0,0-9.9-20.9-21.8-23.8c-11.9-2.9-37.5-16.6-37.5-16.6l-25.6-16.9l-34.3-2.3l-9.6-8.4l-9.2-15.8l-28.4-7.6l-19.3,1.6l-23.7-21.2
		l-21.2-16.3l-59.6-19.8l-24.6-19.9l-4.8-5.1l-70.9-4.6l-76.8,22.9L992.3,517.4z"/>
	<path class="st0" d="M1560,716.2c-6.8,12.4-13.5,28.6-10.7,40.6c2.8,12,16.6,33.1,16.6,33.1l30.5,24.9c0,0,13.7,15,21.4,23.3
		s18.3,22.2,25.1,27c6.8,4.8,22.2,11.3,22.2,11.3l3.1-12.9l-21.8-24.9l-1.7-11.6l42.1,17l31,9.6c0,0,10.9,3.7,11.1-0.9
		c0.2-4.6-5.2-11.1-5.2-11.1l-30.5-18.1l-17.4-18.3l5.5-9.1l41,9.7l36,14l17.9-2.6l-4.1-14.4l-55.8-22l-27.9-16.1l-3.9-6.8l8.1-5.2
		l22.2-0.7l29.9,2.8l20.9-2.2l8.4-9.4l-16.1-7.4l-49.5-11.1l-34.5-4.6l-2-8.9l11.6-6.3l20.2-6.9l10.6-11.9l-2.8-8.2l-22,3.2
		l-18.4-1.1l-19.3-1.3l-24.8-1.9l-33.5,3.7l-21.1,8.1L1560,716.2z"/>
	<path class="st0" d="M672,1655c-0.7,9.8,1.3,17.9,4.6,22.9c3.3,5,12,16.8,12,16.8l62.4-17l8.1-28.8l-12.9-27.5l-31.9,8.7L672,1655z
		"/>
	<path class="st0" d="M1242.7,1858.1c2.4,4.6,14.4,12.9,14.4,12.9s16.6-6.3,35.1-14.4s37.1-19.7,37.1-19.7l0.2-35.9l-31.6,1.7
		l-44.3,31.8L1242.7,1858.1z"/>
	<path class="st0" d="M1337.1,1914.5l-15.9-57.6l-13.2-8.1l-32.4,14.6l-12,12.2l3.2,15.7c0.1,0.4,0.2,0.9,0.4,1.4
		c2.2,7.8,8.7,29.5,18.9,37.8c10.9,8.9,28.4,27.5,28.4,27.5s41.9,12.6,43.2,8.3C1358.9,1962.1,1337.1,1914.5,1337.1,1914.5z"/>
	<path class="st1" d="M884.6,380.5c-7.4,0-12-5.2-37.1-3.1c-25.1,2.2-44.3,3.3-57.8,8.7c-13.5,5.5-37.5,19.6-43.4,23.6
		c-5.9,3.9-32.7,27.9-57.1,58c-24.4,30.1-46.7,57.8-51.5,69.1s-13.6,21.6-12,28.6c1.6,7,9.7,25.6,9.7,25.6h36.8
		c0,0,114.3-4,175.3,23.9s111.7,37.6,129.1,48.2c17.4,10.6,36.1,12.3,36.1,12.3l16.9-29.1l-12.8-16.9c0,0-53.7-34.9-50.1-52.3
		c3.6-17.4,37.3-97.7,37.3-97.7l83.7-50.6l73.9-20.9l-7-19.2l-65.7-20.4l-87.2,2.9L884.6,380.5z"/>
	<g>
		<path class="st2" d="M955.5,160.5c0,0-2.7-2.7-16.9-2.4c-14.3,0.3-24.4,5.9-24.4,5.9s-21.7,8.9-37.4,36.8
			c-15.7,27.9-16.3,51.7-16.3,51.7C885.3,180.9,955.5,160.5,955.5,160.5z"/>
		<path class="st2" d="M760.6,880.6c-1.1,5.4-1.5,10.9-1.9,16.4c-0.2,2.8-0.2,5.5-0.3,8.3c-0.8,19.3-0.6,38.6,1.2,57.9
			c0.4,4,0.9,8,1.4,12c0,0.2,0.2,0.4,0.3,0.5c1.1,0,1.4-0.9,1.5-1.6c0.1-2.7,0.2-5.5,0.1-8.2c-0.3-11.2-1-22.5-0.9-33.7
			c0.2-17.8,0.1-35.7,1.3-53.5c0.3-4,0.1-7.9-0.6-12.2C762,871.4,761.6,876.1,760.6,880.6z"/>
		<path class="st2" d="M686.8,817c-1.8,4.5-3.1,9.2-4,14.1c-2.2,12.4-2.9,24.9-3.7,37.4c-0.3,5.3-0.2,10.6-0.5,15.9
			c-0.8,15.5-0.1,31,0.9,46.5c1,14.8,2.1,29.6,3.4,44.4c0.6,7.2,1.8,14.3,2.9,21.4c0.3,2.1,1.1,4.1,1.7,6.1c0.1,0.2,0.7,0.3,1.1,0.4
			c0.1,0,0.3-0.2,0.3-0.4c0.1-0.6,0.2-1.3,0.2-1.9c-0.3-18-0.7-36.1-1.1-54.1c-0.1-3.6-0.4-7.2-0.6-10.8
			c-0.8-16.5-2.1-33.1-1.6-49.6c0.3-11.5,0.7-22.9,1.1-34.4c0.4-11.2,0.7-22.5,2.3-33.7c0.1-0.8-0.1-1.6-0.2-2.3
			C687.8,815.6,687.2,816.1,686.8,817z"/>
		<path class="st2" d="M944.1,1245.2c9.1-14.3,18.6-30.4,15.8-47.1c-0.3-2-1.1-4.2-3.1-4.7c-1-0.2-1.9,0-2.9,0.4
			c-8.7,3.1-14.8,10.6-21.5,17c-20.8,19.7-50.4,29.3-78.8,26.7c-7.9-0.7-25.8-8.6-32.9-3.1c-11.2,8.7,3.3,27,10.9,32.3
			c17.1,12.1,39.7,12.2,60.5,10.8c10-0.7,20.3-1.7,29-6.6C931.2,1265.1,937.8,1254.9,944.1,1245.2z"/>
		<path class="st2" d="M644.6,1235.4c-11.8,1.4-23.5-3-34.6-7.2c-9.8-3.8-19.8-7.6-28.7-13.3c-5.9-3.8-14.4-14.1-19.2-3.2
			c-6.6,15.3,22.8,34.6,34,38.9c19.7,7.6,43.2,4.5,60.3-7.8c2.9-2.1,5.9-5.2,5.1-8.6C656,1232.8,650.3,1234.7,644.6,1235.4z"/>
		<path class="st2" d="M966.7,437.7c-55-13.1-146.4-12.2-203.4-9.9c0,0-6.5,3.3-19.3,14.5c-10.6,9.3-24.4,25.8-24.4,25.8
			s105.5,4.7,199.6,14.2c3.6,0.4,7.1,0.7,10.5,0.9C939.1,469.2,953,450.3,966.7,437.7z"/>
		<path class="st2" d="M1771.2,800.6c-12.3-5.7-25.2-9.2-33.2-13.7c-7.3-4.1-23.3-10.5-34.4-17.2c-11.1-6.6-16.9-10.3-14.3-12.2
			c3.4-2.5,7.9-3.2,24.1-1.6c16.2,1.6,32.9,0.3,47.7,1.4c15.4,1.1,20.1-2.9,20.2-7.7c0.1-4.8-1.5-9.6-16.8-14.5
			c-15.3-4.9-23-5.8-34.6-9.1c-11.6-3.3-26.2-4.6-33.7-6.7c-7.4-2.1-22.4-5.5-20.1-6.6c2.3-1.2,10.3-3.7,21.9-8.6
			c11.5-4.9,24.3-14.8,19.2-23.4c-5.2-8.6-12.5-3.4-23.1-2.2c-10.6,1.2-15-1.3-20.7-3.3c-5.8-2-9.5,0.6-21.1-0.7
			c-5.6-0.6-22-4.4-34.4-3.4c-11.4,0.9-18.2,0.6-33,6.2c-6.7-6.5-37.8-37.2-48.1-46.9c0.5-2.4,3.6-18.8-2.4-30.6
			c-6.5-12.8-13.4-22-39.2-27.6c-25.8-5.6-26.1-16.9-43.1-27c-16.9-10.1-43.1-7.7-43.1-7.7s-2.1-11.6-26.7-23.8
			c-24.7-12.2-41.8-6.7-41.8-6.7s-30.3-35-57.7-45c-22.5-8.2-39-9.1-44.3-9.2c-0.6-4.8-5.3-33.7-26.6-49.2
			c-23.3-16.9-24.1-18.4-51.4-24.8c-14.1-3.3-24.9-5.6-32.1-7.1c0.1-1.6,0.3-3.7,1.1-4c1.3-0.4,4.4,0.4,5.4-2.2
			c1-2.6,1.6-6.1,4.1-6.4c2.5-0.3,4-0.6,6.4-4.3c2.4-3.7,35.8-42.2,22.4-116.2c-13.4-74-74.2-108.4-120.3-120.7
			c-46.1-12.3-98.3-5.9-128.4,12.3c-30.2,18.3-32.9,24.5-34.5,28.7c-0.7,1.8-2.6,4-4.4,5.6c-7.2,7-26.2,27.1-35.3,54.9
			c-20.5,62.6-4.2,101.1-4.2,101.1s-3.3,2.2-4.6,3.5c-1.1,1,0.3,5.2,2.4,11c1.9,5.3,5.5,15.9,7,18.2c1.8,2.8,2.8,2.6,10,2
			c7.2-0.6,10-1.7,11.1,3.3c1.1,5.1-2.9,4.2-2.3,7.6c0.5,2.8,1,2.3,1.6,6.2c-7.6,0.3-41.9,1.4-46.8,1.4c-5.6,0-18.9,4.7-25.8,7.8
			c-6.9,3.1-44.3,9.1-99.6,73.5c-5.5,6.4-10.6,12.5-15.3,18.3c-9.6,8.6-19.8,18.1-29.1,27.5c-34.3,34.7-36.4,39.2-54.5,46.1
			c-18.1,6.9-25.2,16.5-37.4,23.2c-12.2,6.7-56.9,10.3-68.5,41.1c-5.7,15.2-10.7,26.4-13.5,36.7c-12.2,9.8-41.6,33.7-44.6,38.1
			c-0.8,1.2-1.7,2.9-2.6,4.9c-3.1-0.2-8.7-0.4-16.2-0.9c-12-0.7-13.4,1.6-20.5,3.1c-7.1,1.5-10.7,3-20.2,1.7
			c-9.5-1.3-13.4-2.2-21.2-1c-7.9,1.2-17.1,1.7-17.4,6.9c-0.3,5.2,5.4,12.2,11.6,12c6.2-0.2,17.7,3.2,18.5,3.8
			c0.9,0.6-8.9,4.8-21.7,8c-12.8,3.3-12.2,4.9-20.6,8.2c-8.4,3.2-19.6,6-20.3,10.8c-0.7,4.8,0.3,6.8,11,7.1
			c10.7,0.4,23.8-2.7,29-3.3c5.2-0.7,7.9-2.2,9.4-1.1c1.4,1.1-3.2,4.6-10.5,8.8c-7.2,4.2-14.7,8.7-19.7,10.6
			c-5,1.9-14.4,3.4-14.1,7.6s4.8,8,12.7,7.7s20.6-5,30.2-9.9c9.6-4.9,15.9-9.1,9.2-1.3c-6.7,7.8-11.4,12.6-15.7,17.4
			c-4.3,4.8-8.8,8.4-11,10.8c-2.2,2.5-0.3,4.1,3.9,5.3c4.2,1.2,10.8,0.1,18.4-5.2s14.6-14.7,16.7-15.8c2.1-1.1,4.7-1.1,1.4,6.2
			c-3.2,7.4-8.7,17.4-10.8,20.4c-2.1,3,3.5,8.2,9.6,4.2c6.1-4.1,14.3-13.7,16.2-16.7c1.9-3,1.7-4.5,7.3-9.4
			c5.6-4.9,24.4-7.9,33.3-15.3c8.9-7.4,11.4-15.8,17.6-23.4c0.3-0.4,0.5-0.9,0.7-1.5c2.2,1.3,4.3,2.1,6.1,2.8
			c6.2,2.2,66.2-16,66.2-16s0,0-0.1-0.1c1.3,0.4,2.7,0.7,4.1,0.9c26.3,4.5,39.9,6.5,49.9-5.1c5.7-6.6,20.2-16,31.6-22.8
			c-1.2,7.4-0.9,13.4-0.4,19.1c0.7,6.3,3.6,10.1,5.1,11.6c-1,2.8-1.2,8-1.3,18.7c-0.1,19.5-0.2,31,4.8,33.7c-3.2,2-7.1,4.4-10.9,6.8
			c-8.9,5.6-14.9,8.5-17.1,22.3c-2.2,13.8-5.8,44.7-19.8,86.2c-14,41.5-25.9,76.7-32.7,109.6c-6.8,32.9-14.9,72.8-12.4,120.4
			c2.5,47.7,7.9,69.8-0.5,107.1c-8.3,37.3-13.8,65.8-15.4,89.6c-1.2,19-2,40.1-2.3,47.9c-4.2,5.4-11.4,18.4-13.3,45.1
			c-2.8,38.4,4.1,59.9,10.9,80.6c6.8,20.7,22,43.8,23.7,43.4c1.7-0.4,17.4,16.4,44.3,18.1c18.5,1.2,35.1-1.1,51.8-4.7
			c14.4,6,33,14.1,43.9,20.2c1.3,0.7,2.5,1.4,3.8,2.1l-0.7,0.5c-1.7,23.6-2.8,48.4-4.2,63.2c-1.1,11.5,0.7,16.7,5.2,21.1l15.5,18.7
			c0,0,0,0,0,0c0.5,1.2,0.8,2,0.8,2s0.9,28.8,0,48.3c-0.9,19.5,1.7,46.2,10.4,57.6s32.9,28.7,65.2,2.9
			c32.3-25.9,41.3-55.8,38.7-84.3c-2.6-28.5-0.8-42.2,3.2-72.4c4-30.2,0.7-48.4-6.4-58.3c-7.1-9.8-21-19.4-21-19.4l-11.4-15.9
			c-1.1-24.6-2.8-53.8-3.6-66.6c1-1.5,2-2.9,2.8-4.4c18.3-32.1,22.8-32.1,25.2-42.8c2.4-10.7-0.5-25.9-1.7-36.2
			c-1.1-10.2-1.1-12.6-1.1-12.6s-0.1,0-0.1,0c2.8-8.2,10.7-32.2,11.9-46.9c0.5-6.1,0.9-12.5,1.3-18.2c6,10.2,12.4,23.1,17.1,38.1
			c11.8,37.7,55.2,46.4,57,81c1.7,34.6,11.6,39.8,23.4,67.1s25.5,24.2,34.5,37.3c9,13.1-4.9,31.7,35.9,68.9
			c40.8,37.2,68.8,46.4,104.1,46.7c3.8,0,8.1-0.6,12.7-1.8l130.8,105.3c0.2,3.8,0.5,7.9,1.1,12.2c1.7,12.7,16.4,59,21.4,77.1
			c4.9,18,7.5,15.6,15.7,18.9c8.2,3.3,5.8,5.6,12.8,21c7,15.4,13.4,39.3,41.3,60.8c27.9,21.5,47.1,26.1,75.9,11.3
			c28.8-14.8,26.2-52.4,27.5-90.2c1.3-37.8-14.8-62.5-15.7-67.7c-0.9-5.2,5.4-9.7-9.1-28.4c-14.5-18.7-48.5-57.5-52.9-65.4
			c-4.4-7.9-19.4-21.3-23.1-32.7l-49.1-151.1c22.5-34.7,18-68.2,10.1-85.6c-10.2-22.3-14.2-12.9-33.2-45.9
			c-19-33-36.1-32.4-44.4-41.6c-8.3-9.2-9.3-17.7-9.6-25.3c-0.3-7.5-10.4-12.2-13.5-24.9c-3.1-12.6-8.7-31.8-27-66.7
			c-18.3-34.9-33-55-45.9-77.4c-12.9-22.4-41.9-86.5-56-116.3c-14.1-29.8-15.6-80.7-13.7-96.7c1.9-16-0.9-21.2-1.7-32
			c-0.9-10.8-2-20.1-7.3-28.8c-5.2-8.7-21.5-37.1-21.5-37.1s-0.2-0.1-0.5-0.3c2.2,0.8,3.5,1.2,3.5,1.2s9.9-8.9,13.9-26.7
			c4.1-17.8,3.5-19.9,3.5-19.9s-0.2-0.1-0.4-0.2c4.6-2.4,13.4-9.1,16.1-25.2c3.8-22-8.1-32-1.7-49.7c4.4-12,6.9-17.3,8-19.5
			c0.8,0.3,1.5,0.6,2.2,0.8c5.9,2.2,13.4,7.4,18.7-1c5.3-8.4,9-15.4,11.1-15.5c2.1-0.1,11.4-2,24.7-3.6c13.4-1.6,23.7-7.4,31.6-19.7
			c6.3-9.7,29.9-49,39.6-65.1c4.9,3.1,20.3,12.6,37.4,23.4c20.8,13.1,31.8,8.8,31.8,8.8s17.2,27.1,32.7,38.4
			c15.4,11.3,35.4,23.2,35.4,23.2s6.5,17.8,22.2,33.7c15.6,15.9,28.4,27.2,67.8,28.5c36.6,1.2,53.7-9.9,55.2-11.8
			c13,3.5,82,18.3,99.6,22c7.8,17.8,24.5,27.9,31,32c9,5.7,27.5,20.9,35.9,32.5c9.2,12.5,18.6,23.4,40.8,37.6
			c22.2,14.2,25.6,0.1,23.5-4.2c-2.1-4.3-8.1-13.6-20.2-25.9c-12.1-12.3-8.9-14.3-6.3-13c2.6,1.3,30.7,14,37.3,17.2
			c6.6,3.2,18,6.8,38.3,10.1c20.3,3.3,12.1-11.9,5.2-15.8c-6.8-3.9-13.3-8.4-23.3-12.9c-10-4.6-24.6-19.3-27.1-26.1
			c-1-2.6,1-5,14.9-0.8c16,4.8,49.4,15.6,60.9,18.6c11.5,3.1,24.1,1.9,26.8-2.7C1785.3,814.5,1784.1,806.6,1771.2,800.6z M841.5,309
			c-0.4-2.1-4.1-14.8-2.2-40.3c1.9-25.5,10.3-59.6,31-86.5c16.6-21.6,76.4-77.5,149.7-37.6c73.3,39.9,79.3,129.3,79.4,132.3
			c0.1,3-0.3,4.9-3.3,5.2c-3,0.3-10.4,3.6-18.1,12c-7.7,8.4-8,10.9-11.4,18.3c-1,2.2-2.4,4.2-5.3,2.2c-3-1.9-39.7-30.9-122.9-25
			c-82.1,5.9-91.5,21.4-93.6,22C842.5,312.3,842,311.1,841.5,309z M855.4,349.7c-4.8,0.3-5.4-0.4-7.1-4.2
			c-2.9-6.1-3.8-10.3-4.7-12.9c-0.9-2.6-0.7-4.8,2.3-6.2c3-1.3,34.3-12,87.2-15.7c52.9-3.7,105.4,12.9,105.4,12.9s-1.6,4.9-7.3,15.2
			c-4.1,7.6-6.4,11-6.4,11s-43.2-9.7-94.6-7.6C880.4,344.3,860.2,349.4,855.4,349.7z M627.2,660.6c1.6-8,9.8-10.5,8.9-20.8
			c-0.9-10.2-3.1-10.3,4.2-20.9c7.3-10.6,3.3-17.8,15.7-18.6c16.2-0.7,45.5-0.6,86.5,4.7c71.9,9.4,158.3,33.6,221.3,68
			c0.4,0.2,0.8,0.4,1.2,0.6c0,0,0,0,0,0c14.3,8.1,15,9.4,18.6,15.3c3.6,5.9,1.6,18.6-18.3,20.1c-0.8,0.1-1.6,0.1-2.3,0.2
			c-22.1,1.5-66.6-21.7-139.7-39.3c-75.8-18.2-103.2-4.8-45,6.3c72.7,13.9,153.9,38.5,171.9,55.6c3.3,6.8,11.9,10.4,4.2,26.7
			c-6.6,13.9-29,6.8-64.6-3.4c0,0,0,0,0,0c-6.5-2.5,15.5-16,9.5-18.1c-6-2.1-16.6,15.2-26.5,13.3c0,0,0,0,0,0c-1-0.3-2-0.5-3-0.8
			c-40.3-10.8-70.3-18.3-120-24.8c-0.1-0.1-0.2-0.1-0.3-0.2c-4-1.7-5.1-2.3-4.4-11.7c0.7-9.4-5.1-8.9-7.3-2.2
			c-2,6-4.1,10.9-10.5,11.4c-1.6-0.2-3.2-0.4-4.8-0.5c-67.1-7.3-99.8,0-99.8,0s-3.9-2.1-4.4-16.9c-0.2-5.9,0.8-9.9,2.1-13.2
			c5.6-14,44.3-11.1,67.5-10c23.2,1.1,19.2-10.9-3.6-11.5c-22.7-0.6-57.8,2.6-57.2-7.4C627,661.9,627.1,661.3,627.2,660.6z
			 M938.3,792.2c-1.6,6.1-3.9,13.4-5.6,18.7c-1.2,3.7-5.1,5.8-8.9,4.7c-27.6-8.5-59.4-17.2-88.3-23.7c0,0,0,0,0,0
			c-7.8-3.3-5-8.7-2.7-17.6c2.2-8.9,4.1-16,17.6-12.6c10,2.5,20.9,5.3,33.2,8.6c17.7,4.8,35.3,8.9,49.8,13.4
			C937.1,784.7,939.3,788.5,938.3,792.2z M824.1,772.1c-2.5,9.8-3.8,15-11.9,14.8c0,0,0,0,0,0c-2.9-0.5-5.7-1.1-8.4-1.5
			c-32.7-5.7-57.6-8.2-78.1-9.2c0,0,0,0,0,0c-8.9-0.4-7.2-6.5-6-18.6c1.2-12,3.8-16.1,10.9-15.4c0.2,0,0.5,0,0.7,0.1
			c32.8,3.3,54.4,5.1,89.8,12.6C828.1,756.5,826.6,762.4,824.1,772.1z M711.3,757.7c-0.7,14.6-2.4,17.8-6.4,17.8c0,0,0,0,0,0
			c-13.9-0.1-25.7,0.2-37.1,0.4c-8.1,0-6.7-12.7-6.2-22.2c0.4-9.6,1.2-14.2,6.6-14.2c11.3,0,23.4,0.3,35.3,0.8
			C713.5,741.8,712.1,743.2,711.3,757.7z M650,776C650,776,650,776,650,776c-10.5,0.2-19.1,0.6-24.9,1c-3.8,0.3-7.1-2.5-7.6-6.2
			c-0.9-7.5-1.1-16.8-0.5-23.3c0.3-3.4,3-6.1,6.4-6.5c6.8-0.6,16-1.1,26.6-1.4c5.9,0.1,3.8,4,3.8,14.5
			C653.8,764.7,655.5,775.9,650,776z M460,724.9c-8.7,3.7-14.1,5.3-18.2-0.6c-1.6-5.7-3.5-11.7-5.3-16.9c-1-6.3-1.3-12.5-0.4-15.2
			c1.6-5.3,3.7-6.1,15.6-15.9c7.5-6.1,15.9-12.9,21.2-17c-0.6,6.6-0.1,13.2,2,20.7c2.9,10.2,7.1,21.1,13.1,30.5
			C480.1,714.8,466.2,722.2,460,724.9z M582.7,624.3c-3.9-6.5-23.2-10.4-19.9,9.8c3.3,20.2,8.9,25.8,5.6,33
			c-3.3,7.1-12.5,9.1-19.2,5.1c-9.8-5.9-17.1-27.6-28.4-23.8c-11.3,3.9,0,32.4-5.6,37.7c-5.6,5.3-15.7,12.6-19.5,12.7
			c0,0-17.8-25.6-12-46.1c5.8-20.5,18.5-47.7,23.4-51c4.9-3.3,29.9-12.7,49.5-18.9c19.6-6.2,18.7-14.3,30.3-19.6
			c11.6-5.3,28.4-12.8,36.2-20.2c7.7-7.4-4.1,12.2-5,19.9c-0.5,4.1-0.5,8.2,0.1,11.8c0.2,1.5,0.5,2.8,1,4.1c0.5,1.4,1.1,2.6,1.9,3.5
			c3,3.6,4.7,7.4,4.7,7.4s1,25.9-10,33.3C604.7,630.3,586.5,630.9,582.7,624.3z M646.4,1428.3c2.5,2.2-2.3,20.3-7.9,24.1
			c-5.6,3.8-14.9,5.3-37.2,5.6c-22.3,0.2-31.2-0.2-42.8-3.1c-11.6-2.9-1.3,5.6,11.4,7.6c12.7,2,44.6,0.4,54.6-0.2
			c10-0.7,11.6,8-5.8,14c-17.4,6-23.4,5.6-58.6,5.2c-35.2-0.4-60.8-7.2-61.2-8.1c-0.3-0.8-3.2-9.7-4.8-26c3-0.1,10,2.1,23.1,4.8
			c15.2,3.1,17.4,0.3,14.4-0.7c-3.1-1-6.2-2.9-23.7-5.7c-10.2-1.6-13.4-3.7-14.4-6.4c-0.4-12.6,1.6-25.7,3.1-34.5
			c4.6-1.5,13.6-2,25.1-2.1c15.5-0.2,27.5,1.7,57.8,6.1c30.3,4.4,25.7,1.3,3.9-4.1c-21.8-5.5-43.6-11.1-61.1-9.6
			c-17.4,1.5-24.4,2.3-22.8-3.6c1.5-4.3,3.4-7.2,4.8-10.5c1.9-4.6,11.7-5.3,20.5-6.1c8.1-0.7,17.3,1.8,36.3,6.1
			c22.5,5.7,48.5,13.1,62.8,14.3c4.1,0.4,9.2,0.8,14.8,1.2c5,1.1,6.3,3.1,8.2,6c2.5,3.8,2.9,11.9-0.8,16.8
			C642.7,1424.2,643.9,1426.1,646.4,1428.3z M733.5,1667.7c-11.8,7.8-26.3,15.6-44.6,19c-2.9,0.6-17.3-17.4-13.1-18.1c0,0,0,0,0,0
			c11.3-1.5,27.7-5.6,37.6-11.4c14.2-8.3,20.7-21.6,24.6-21.6c3.9,0,4.1,7.6,6.8,13.3C747.5,1654.6,747.1,1658.8,733.5,1667.7z
			 M1336.8,1944.5c0,0-5.7,7,1.7,12.6c2.1,1.6,4.9,3.9,7.7,6.5c-12.8,0.4-29.6-11.7-41.1-21.3c-11.6-9.6-17.7-22.7-26.2-39.3
			c-8.5-16.6-14.3-21-11.4-24.2c4.8-5.1,12.3-11.6,23.8-18.1c25.7-14.4,7-3.1,14.8,31C1314.1,1925.7,1336.8,1944.5,1336.8,1944.5z
			 M1284.9,1821.2c23.7-12.5,38.2-15.1,37.9-12.5c-0.3,2.6-3.5,22.1-4.4,23c-0.9,0.9-10.2,3.8-30,14.8c-19.8,11-21.8,18.3-25.9,19.2
			s-7.4-1.2-15.7-4.4C1241,1859.1,1261.2,1833.7,1284.9,1821.2z M1182.9,1688c15.7-8.4,23-19.2,23-19.2s9.6,14,19.2,23.3
			c9.6,9.3,11.3,11.9,6.1,15.7c-5.2,3.8-11.3,7.9-18.9,11.6c-7.6,3.8,0.6,10.2,11.3,7c10.8-3.2,13.7-10.5,18.3-10.5
			c4.7,0,14.5,18.6,14.5,18.6s-8.1,9.6-20.1,15.4c-16.7,8.1-20.2,2-41.5-14.8c-21.3-16.9-37.6-37.2-37.6-37.2
			S1167.2,1696.4,1182.9,1688z M1122.5,1469.8c14.5-19.3,19.8-22,27.9-4c8.1,18,14.5,33.1-30.8,62.8
			c-45.4,29.7-82.6,32.6-108.2,47.3c-25.6,14.7-30,20.2-44.5,14.4c-14.5-5.8-19.5-17.2-22.7-28.8c-2.6-9.7,64.8-42.2,110.8-53.2
			C1100.9,1497.3,1107.9,1489.1,1122.5,1469.8z M1068.4,1340.5c8.4,7.3,12.2,13.4,9.3,17.7c-2.9,4.4-7.3,8.4-23.3,20.1
			c-16,11.6-14.2,18.3-1.2,11.3c13.1-7,18-10.5,24.7-14.5c6.7-4.1,10.2-7,17.7-1.2c7.6,5.8,23,13.1,1.6,36.2
			c-21.4,23.1-38.4,31.4-62.4,40.6c-24,9.2-38.4,3.1-30.5-2.2c7.9-5.2,3.2-12.4-21.2,0.7c-24.4,13.1-12.5,19.5-34.6,19.8
			c-22.1,0.3-40.7,2.6-39-3.2c1.7-5.8,8.4-12.2,25.6-25.6c17.2-13.4,32.3-20.4,55-28.2c22.7-7.9,13.4-13.2-28.9,2
			c-42.3,15.3-65,53.2-68.5,43.6c-3.5-9.6-5.2-29.7,4.8-45.8s37.9-23.6,75.9-36.2c37.9-12.6,61-28.4,80.3-42.3
			C1057.9,1330.4,1059.9,1333.3,1068.4,1340.5z M1002.7,1241.2c9.6-10.5,18.3-7.9,29,2.4c10.7,10.3,19.8,24.9,17,41.7
			c-2.8,16.8,2.7,30.2,2.7,30.2s-13.8,13.4-38.9,24.4c-25.2,11-66,28.2-89.1,36.7s-41.9,29-46,40.6c-4.1,11.6-7.2,0.7-12.2-8.7
			c-5-9.4-19-21.2-31.6-34.2c-12.6-13.1-12.2-22.2-30.5-61.5c-2.9-6.2-5.5-10.8-7.8-14.3c-2.8-9-12.4-40.8-20.9-76.3
			c-10-42.1-20.4-88.2-34.5-114.5c-14.1-26.3-32.6-56.5-41.1-67.5c-8.5-11-9.2-13.1-10.5-11c-1.3,2.1,3.6,15.6,3.6,15.6
			s-0.4,25.6,8.2,46.3s17.6,40.8,18,62c0.4,21.2-2.7,36.8-15.7,60.2s-20.4,38.5-40.4,48.8c-20.1,10.3-26.3,16.3-18.9,22.5
			c7.4,6.2,27.9,1.1,34.3,11.6c6.5,10.5,8.1,27.6-13.4,40.3c-21.5,12.6-40.7,17.7-46.8,21.1c-6.1,3.4-10.4,11.5-10.4,12.6
			c0,1.1,3.9,2.3,7.7,2.3c3.8,0,22.7,2.1,33.1,2.9c10.4,0.8,14.7,1.7,13.1,6.9c-1.6,5.2-2.2,8.7-2.2,8.7s-26.9-1.8-48.6-6.7
			c-21.7-4.9-59.6-15.2-74.1-16.3c-14.6-1.2-27.5,1.3-27.5,1.3s-0.9-30.6,4-52.9c4.9-22.3,11.8-54.1,14.9-73c0.6-3.5,1.1-7,1.5-10.4
			c4.5,10.7,11.5,23.7,18.4,39.4c11.9,27,7.1-5.1,0-21.1c-7.1-16-14.3-33.9-16.3-47.5l-0.1-1.3c-0.4-6.6-2-38.1-0.7-88.9
			c1.5-57.3,3.9-69.7,17.2-116.5c13.3-46.8,29.3-93.1,37.8-129.2c8.5-36.1,8.6-54,12.9-59.3c2.9-3.5,17.2-13.4,26.5-19.7
			c2.7-0.3,6.2-0.5,11.4-0.7c0.1,0,0.2,0,0.4,0c4.7,0.1-3.8,5.3-7.4,12c-3.6,6.6,4.7-1.1,12.2-6c6.9-4.5,8.5-6.1,13.5-6.3
			c0.5,0,1,0,1.6,0c31.6,0,67.5-4.3,136.9,7c8.1,1.4,9.8,6.1,12.2,15.5c2.4,9.5,6.1,14.7,4.5,1.6c-1.6-12.9-1.8-14.6,0.3-14.2
			c19.1,3.7,40.6,9,62,14.9c6.1,13.1,24.6,54.6,37.5,99.2c15.7,54.1,4.3,79.1,8.1,129.4c3.9,50.3,24,72.7,52.3,106.9
			c28.4,34.3,19.6,45.9,17.7,60.9c-2,15-9.4,37.9-42.1,57.6c-32.7,19.6-30.5,24.4,0.1,12.3C975.9,1267.2,993.1,1251.7,1002.7,1241.2
			z M1002.4,670c0,0-111.6-57.6-207-77.5c-95.4-19.9-154.7-7.4-154.7-7.4s-4.1-2.8-7.4-7.9c-3.2-5.1-2.8-8.6,0-15.8
			s20.2-41.5,53.3-84.8c28.8-37.7,50.9-56.2,76.1-72.4c25.2-16.3,57.9-23.2,57.9-23.2s35.5-1.6,42.1-1.6c6.6,0,0.8,5.5,9.2,9.1
			c17.2,7.6,68.1,16.4,115.1,3c44.1-12.5,51.1-14.7,69.3-16.3c7.2-0.1,17-0.3,27.2-0.5c34,7.9,64,20.5,64,20.5s-36.6-2.2-73.5,16.3
			c-36.8,18.4-79,41-107,88.5c-22.1,37.6-18.1,68-6.8,88.8c12.1,22.4,53.2,46.8,53.2,46.8L1002.4,670z M1384.8,748.1
			c-26.5-0.7-56.8-12.7-66.6-36.1c-9.8-23.4-19.8-39.4-19.8-34.1c0,5.3,1.6,9.3-7.1,4.2c-7.9-4.7-18.5-9-30.5-22.3
			c-1.5-2-3-4.9-4.6-9.4c-3.2-9.5-4.1-29.5-3.6-39.8c0.4-10.3-1.9-19.6-6.1-23.6c-2.1-2.7-5.6-2.2-8.1,1.2
			c-5.3,6.9-10.2,21.2-10.2,28.1s1.8,11.8-7.4,9.8c-9.1-2-26.3-12.7-38.3-26.1c-12-13.4-31.5-27.3-52.6-40.3c-1.6-1-3.4-2.2-5.2-3.5
			c-17.9-11.2-43.6-20.1-45.1-15c-1.6,5.1,2.7,4.7,17.4,10.9s27.9,9.6,12.5,11.6c-15.4,2-26.1,4.9-34.1,12.5
			c-8,7.6,0.7,12.3,9.1,6.7c8.5-5.6,28.3-8,34.5-4.7c6.2,3.3,4.8,13.6,1.6,20.6c-6.9,10.2-15.3,21-22.8,26.7
			c-16.9,12.9-73.3,2.7-95.5-12.7c-7.7-5.3-13.5-11.7-17.8-18.9c-1.1-3.4-2.2-7.7-3.2-13.1c-3.6-20.2,29.7-32.1,50.8-33.9
			c21.1-1.8,11.6-17.8,3.3-19c-7.6-1.1-21.2-13.7,1.2-37.5c14-14.3,30.3-5.6,56.1-20.4c7.1-4.1,27.3-18.4,42.5-23.2
			c15.2-4.8,41.6-5.1,41.6,0c0,5.1-25.6,9.3-38.3,21.3c-12.7,12-4,14.7,12.9,4.2c16.9-10.5,45-14,67.1-13.1
			c6.6,0.4,12.7,1.3,18.2,2.8c19,5.3,35.9,10.1,49.7,16.1c9.8,4.7,18.7,12.9,14.1,21c-4.7,8.1-5.5,29.8-1.1,35.3c0,0,0,0,0,0
			c1.6,2.5,5.7,2.7,13.2-1.7c17.8-10.5,35.7-20.3,51.2-14.7c15.6,5.6,24.3,12,24.5,17.2c0.2,5.1-18.3,8.9-23.6,14
			c-5.3,5.1-3,20,27.9,8.4s41.3-7.4,49.9-4.2s10.4,13.4,19.3,19c8.9,5.6,22.3,7.4,37.1,15.2c14.9,7.7,17.2,20.3,17.2,20.3
			s-51.8-26.8-93.3,20c-23.2,26.1-26.4,47.6-25.8,64.4c0.4,14,3.9,29.5,12.8,40.8c8.3,10.4,13,12.3,13,12.3
			S1411.4,748.7,1384.8,748.1z M1554,710.3c-4.5,12.6-8.5,29.8-8.2,38.5c0.2,8.7-0.7,13.4-10.3,11.4c-2.6-0.5-5.7-1.3-9.5-2.3
			c-6.1-1.8-9.3-9.3-7.2-28.9c2.1-19.6,3.7-24.3,7.2-31.9c3.4-7.6-2.3-7.7-6.9-2.3c-4.6,5.3-9.7,17.8-11.3,29.1
			c-1.5,10.1-2.5,27.4-10.4,26.5c0,0,0,0,0,0c-4.5-1.1-9.2-2.3-14.3-3.5c-25-5.8-52.4-14-52.4-14s-23-23-12.7-56.6
			c10.2-33.6,27.6-47.5,45-55c14-6.1,32.2-5.1,45.8,1.3c2.6,1.4,3.6,4.3-9.7,7.2c-14.5,3.1-17.8,18.7-4.8,11.4
			c13-7.4,27.8-7.1,33.6-4.1c13.1,12.1,28.9,28.1,33.1,32.8c5.3,6,10.8,11.1,9,13.1C1566.1,687.6,1558.4,697.7,1554,710.3z
			 M1773.5,811.7c-2,6.3-6.5,4.9-15.7,3.5c-9.7-1.6-34-10.4-51.9-16.6s-29.8-3.4-32.4-1c-2.7,2.4-1.2,7.5,4.5,15.7
			c5.7,8.2,17.3,18.5,30.4,24.4c13,5.9,21,8.6,17.5,13.5c-2,2.8-19.7-4.9-28.7-7.7c-9-2.8-30.9-12.6-44.2-18.3
			c-13.3-5.6-13.5,1-12.1,8.1c1.3,7.1,11,19.2,17.2,24.4c6.2,5.2,10.7,12.6,5.9,13.4c-4.8,0.7-29.9-18.4-40.7-31.9
			c-3.2-4-6.2-8.3-8.9-12.4c-2.3-7.6,9.3-9.8,23.5-30.5c14.3-20.7,19.2-38.5,17.8-39.7c-1.3-1.1-8.2,1.3-17.2,18.5
			c-8.9,17.2-33.9,32.5-40.9,28.8c0,0,0,0,0,0c-6.8-4.5-21.7-7.9-31.6-21.9c-14.7-20.9-10.8-43.7,1.9-73.2
			c10.8-25.3,32.6-25.7,45.8-27.6c13.3-1.9,33.4,4.4,46.1,2c8.9-1.7,17.2,3,30.5,2.1c6.2-0.4,12.3-2.8,16.3-2.2
			c4.6,0.8,5.1,3.8,1.6,6.7c-10.3,8.7-20.8,11.4-29.2,13.3c-4.6,1.1-11.9-1.9-14.9-1.9c-3,0-1.7,5.8-3.8,8.1
			c-2.1,2.3-6,6.1-10.7,9.4c-10.7,5.5-25.1,11.7-35.9,13.7c-17.8,3.3-2.2,6.5,12,4.2c14.1-2.2,30.7-7.2,36.4-11.6
			c4.3-3.3,9.1-3.3,12.9-2.2c0,0,0.1,0,0.1,0c2,0.7,4.2,1.3,6.6,1.7c17.4,3.1,42.4,8.6,59.3,12.1c16.8,3.6,29.6,2.7,28.7,10.7
			c-0.9,8.5-40.9,0-56.4-0.7c-20.9-0.9-33,1.7-35.4,4.2c-2.4,2.6,1.6,14.5,16.1,21.8c13.6,6.9,40.8,21.2,54.7,25.7
			C1762.8,803,1775.4,805.5,1773.5,811.7z"/>
		<path class="st2" d="M1296.8,592.3c-9.3,16.3-9.7,48.1,0,66c9.6,17.7,3.5-16.9,2.8-29.4c-0.7-12.5-1.6-25.9,5.7-39.8
			C1312.5,575.1,1306.1,576,1296.8,592.3z"/>
	</g>
</g>
</svg>
